<mxfile host="app.diagrams.net" modified="2024-04-17T20:08:10.196Z" agent="Mozilla/5.0 (Windows NT 10.0; Win64; x64) AppleWebKit/537.36 (KHTML, like Gecko) Chrome/124.0.0.0 Safari/537.36" etag="r7ma6AyPbVOMaJSkVPaj" version="24.0.7" type="device">
  <diagram name="PÃ¡gina-1" id="sGbsREWsHjC3F5GEO4Eu">
    <mxGraphModel dx="1434" dy="772" grid="1" gridSize="10" guides="1" tooltips="1" connect="1" arrows="1" fold="1" page="1" pageScale="1" pageWidth="1169" pageHeight="827" math="0" shadow="0">
      <root>
        <mxCell id="0" />
        <mxCell id="1" parent="0" />
        <mxCell id="EqJ2xSsujDH2mjNiBFDZ-3" value="Client" style="html=1;dashed=0;whiteSpace=wrap;" parent="1" vertex="1">
          <mxGeometry x="175" y="200" width="100" height="50" as="geometry" />
        </mxCell>
        <mxCell id="EqJ2xSsujDH2mjNiBFDZ-5" value="v" style="shape=requiredInterface;html=1;verticalLabelPosition=bottom;dashed=1;strokeColor=#FF3333;strokeWidth=2;fillColor=none;fontColor=#FF3333;align=center;verticalAlign=top;labelPosition=center;" parent="1" vertex="1">
          <mxGeometry x="320" y="70" width="20" height="280" as="geometry" />
        </mxCell>
        <mxCell id="EqJ2xSsujDH2mjNiBFDZ-7" value="" style="shape=requiredInterface;html=1;verticalLabelPosition=bottom;dashed=1;strokeColor=#FF3333;strokeWidth=2;fillColor=none;fontColor=#FF3333;align=center;verticalAlign=top;labelPosition=center;" parent="1" vertex="1">
          <mxGeometry x="510" y="70" width="20" height="280" as="geometry" />
        </mxCell>
        <mxCell id="EqJ2xSsujDH2mjNiBFDZ-9" value="" style="shape=requiredInterface;html=1;verticalLabelPosition=bottom;dashed=1;strokeColor=#FF3333;strokeWidth=2;fillColor=none;fontColor=#FF3333;align=center;verticalAlign=top;labelPosition=center;" parent="1" vertex="1">
          <mxGeometry x="710" y="72" width="20" height="276" as="geometry" />
        </mxCell>
        <mxCell id="EqJ2xSsujDH2mjNiBFDZ-11" value="User / Frontend Boundary" style="text;html=1;align=center;verticalAlign=middle;whiteSpace=wrap;rounded=0;" parent="1" vertex="1">
          <mxGeometry x="275" y="30" width="110" height="30" as="geometry" />
        </mxCell>
        <mxCell id="EqJ2xSsujDH2mjNiBFDZ-12" value="Database" style="html=1;dashed=0;whiteSpace=wrap;shape=partialRectangle;right=0;left=0;" parent="1" vertex="1">
          <mxGeometry x="770" y="195" width="100" height="30" as="geometry" />
        </mxCell>
        <mxCell id="EqJ2xSsujDH2mjNiBFDZ-13" value="Frontend / Backend Boundary" style="text;html=1;align=center;verticalAlign=middle;whiteSpace=wrap;rounded=0;" parent="1" vertex="1">
          <mxGeometry x="465" y="30" width="110" height="30" as="geometry" />
        </mxCell>
        <mxCell id="EqJ2xSsujDH2mjNiBFDZ-14" value="Backend / Database Boundary" style="text;html=1;align=center;verticalAlign=middle;whiteSpace=wrap;rounded=0;" parent="1" vertex="1">
          <mxGeometry x="660" y="30" width="120" height="30" as="geometry" />
        </mxCell>
        <mxCell id="EqJ2xSsujDH2mjNiBFDZ-19" value="File System" style="html=1;dashed=0;whiteSpace=wrap;shape=partialRectangle;right=0;left=0;" parent="1" vertex="1">
          <mxGeometry x="580" y="300" width="100" height="30" as="geometry" />
        </mxCell>
        <mxCell id="EqJ2xSsujDH2mjNiBFDZ-22" value="Retrieve Photos" style="shape=ellipse;html=1;dashed=0;whiteSpace=wrap;perimeter=ellipsePerimeter;" parent="1" vertex="1">
          <mxGeometry x="600" y="195" width="60" height="60" as="geometry" />
        </mxCell>
        <mxCell id="EqJ2xSsujDH2mjNiBFDZ-23" value="Change" style="shape=ellipse;html=1;dashed=0;whiteSpace=wrap;perimeter=ellipsePerimeter;" parent="1" vertex="1">
          <mxGeometry x="400" y="110" width="60" height="60" as="geometry" />
        </mxCell>
        <mxCell id="EqJ2xSsujDH2mjNiBFDZ-24" value="Show Photos" style="shape=ellipse;html=1;dashed=0;whiteSpace=wrap;perimeter=ellipsePerimeter;" parent="1" vertex="1">
          <mxGeometry x="400" y="220" width="60" height="60" as="geometry" />
        </mxCell>
        <mxCell id="EqJ2xSsujDH2mjNiBFDZ-26" value="" style="endArrow=classic;html=1;rounded=0;exitX=1;exitY=0.25;exitDx=0;exitDy=0;entryX=0;entryY=0.5;entryDx=0;entryDy=0;" parent="1" target="EqJ2xSsujDH2mjNiBFDZ-23" edge="1">
          <mxGeometry width="50" height="50" relative="1" as="geometry">
            <mxPoint x="280" y="212.5" as="sourcePoint" />
            <mxPoint x="410" y="140" as="targetPoint" />
          </mxGeometry>
        </mxCell>
        <mxCell id="EqJ2xSsujDH2mjNiBFDZ-27" value="Request" style="edgeLabel;html=1;align=center;verticalAlign=middle;resizable=0;points=[];" parent="EqJ2xSsujDH2mjNiBFDZ-26" vertex="1" connectable="0">
          <mxGeometry x="0.2352" y="-1" relative="1" as="geometry">
            <mxPoint x="19" y="11" as="offset" />
          </mxGeometry>
        </mxCell>
        <mxCell id="EqJ2xSsujDH2mjNiBFDZ-28" value="Photos" style="endArrow=classic;html=1;rounded=0;exitX=0;exitY=0.5;exitDx=0;exitDy=0;entryX=1;entryY=0.75;entryDx=0;entryDy=0;" parent="1" edge="1">
          <mxGeometry x="0.4051" y="22" width="50" height="50" relative="1" as="geometry">
            <mxPoint x="400" y="247" as="sourcePoint" />
            <mxPoint x="275" y="234.5" as="targetPoint" />
            <mxPoint as="offset" />
          </mxGeometry>
        </mxCell>
        <mxCell id="EqJ2xSsujDH2mjNiBFDZ-31" value="Select Photos" style="shape=ellipse;html=1;dashed=0;whiteSpace=wrap;perimeter=ellipsePerimeter;" parent="1" vertex="1">
          <mxGeometry x="600" y="90" width="60" height="60" as="geometry" />
        </mxCell>
        <mxCell id="EqJ2xSsujDH2mjNiBFDZ-32" value="" style="endArrow=classic;html=1;rounded=0;exitX=1;exitY=0.5;exitDx=0;exitDy=0;entryX=0;entryY=0.5;entryDx=0;entryDy=0;" parent="1" source="EqJ2xSsujDH2mjNiBFDZ-23" target="EqJ2xSsujDH2mjNiBFDZ-31" edge="1">
          <mxGeometry width="50" height="50" relative="1" as="geometry">
            <mxPoint x="490" y="220" as="sourcePoint" />
            <mxPoint x="540" y="170" as="targetPoint" />
          </mxGeometry>
        </mxCell>
        <mxCell id="EqJ2xSsujDH2mjNiBFDZ-33" value="UserId" style="edgeLabel;html=1;align=center;verticalAlign=middle;resizable=0;points=[];" parent="EqJ2xSsujDH2mjNiBFDZ-32" vertex="1" connectable="0">
          <mxGeometry x="0.2375" relative="1" as="geometry">
            <mxPoint x="16" y="13" as="offset" />
          </mxGeometry>
        </mxCell>
        <mxCell id="EqJ2xSsujDH2mjNiBFDZ-35" value="" style="endArrow=classic;html=1;rounded=0;exitX=1;exitY=0.5;exitDx=0;exitDy=0;entryX=0.5;entryY=0;entryDx=0;entryDy=0;" parent="1" source="EqJ2xSsujDH2mjNiBFDZ-31" target="EqJ2xSsujDH2mjNiBFDZ-12" edge="1">
          <mxGeometry width="50" height="50" relative="1" as="geometry">
            <mxPoint x="790" y="380" as="sourcePoint" />
            <mxPoint x="840" y="330" as="targetPoint" />
          </mxGeometry>
        </mxCell>
        <mxCell id="EqJ2xSsujDH2mjNiBFDZ-36" value="Query" style="edgeLabel;html=1;align=center;verticalAlign=middle;resizable=0;points=[];" parent="EqJ2xSsujDH2mjNiBFDZ-35" vertex="1" connectable="0">
          <mxGeometry x="0.2554" y="-1" relative="1" as="geometry">
            <mxPoint as="offset" />
          </mxGeometry>
        </mxCell>
        <mxCell id="EqJ2xSsujDH2mjNiBFDZ-37" value="" style="endArrow=classic;html=1;rounded=0;exitX=0;exitY=0.5;exitDx=0;exitDy=0;entryX=1;entryY=0.5;entryDx=0;entryDy=0;" parent="1" source="EqJ2xSsujDH2mjNiBFDZ-12" target="EqJ2xSsujDH2mjNiBFDZ-22" edge="1">
          <mxGeometry width="50" height="50" relative="1" as="geometry">
            <mxPoint x="570" y="320" as="sourcePoint" />
            <mxPoint x="620" y="270" as="targetPoint" />
          </mxGeometry>
        </mxCell>
        <mxCell id="EqJ2xSsujDH2mjNiBFDZ-38" value="PhotoIds" style="edgeLabel;html=1;align=center;verticalAlign=middle;resizable=0;points=[];" parent="EqJ2xSsujDH2mjNiBFDZ-37" vertex="1" connectable="0">
          <mxGeometry x="0.4328" y="-2" relative="1" as="geometry">
            <mxPoint x="5" y="22" as="offset" />
          </mxGeometry>
        </mxCell>
        <mxCell id="EqJ2xSsujDH2mjNiBFDZ-39" value="" style="endArrow=classic;html=1;rounded=0;exitX=0.5;exitY=1;exitDx=0;exitDy=0;entryX=0.5;entryY=0;entryDx=0;entryDy=0;" parent="1" source="EqJ2xSsujDH2mjNiBFDZ-22" target="EqJ2xSsujDH2mjNiBFDZ-19" edge="1">
          <mxGeometry width="50" height="50" relative="1" as="geometry">
            <mxPoint x="540" y="440" as="sourcePoint" />
            <mxPoint x="590" y="390" as="targetPoint" />
          </mxGeometry>
        </mxCell>
        <mxCell id="EqJ2xSsujDH2mjNiBFDZ-40" value="Access Files" style="edgeLabel;html=1;align=center;verticalAlign=middle;resizable=0;points=[];" parent="EqJ2xSsujDH2mjNiBFDZ-39" vertex="1" connectable="0">
          <mxGeometry x="-0.0667" y="1" relative="1" as="geometry">
            <mxPoint y="-2" as="offset" />
          </mxGeometry>
        </mxCell>
        <mxCell id="EqJ2xSsujDH2mjNiBFDZ-41" value="" style="endArrow=classic;html=1;rounded=0;exitX=0;exitY=0.5;exitDx=0;exitDy=0;entryX=1;entryY=0.75;entryDx=0;entryDy=0;entryPerimeter=0;" parent="1" source="EqJ2xSsujDH2mjNiBFDZ-19" target="EqJ2xSsujDH2mjNiBFDZ-24" edge="1">
          <mxGeometry width="50" height="50" relative="1" as="geometry">
            <mxPoint x="500" y="450" as="sourcePoint" />
            <mxPoint x="550" y="400" as="targetPoint" />
          </mxGeometry>
        </mxCell>
        <mxCell id="EqJ2xSsujDH2mjNiBFDZ-42" value="Photos" style="edgeLabel;html=1;align=center;verticalAlign=middle;resizable=0;points=[];" parent="EqJ2xSsujDH2mjNiBFDZ-41" vertex="1" connectable="0">
          <mxGeometry x="0.5515" relative="1" as="geometry">
            <mxPoint x="-13" y="19" as="offset" />
          </mxGeometry>
        </mxCell>
      </root>
    </mxGraphModel>
  </diagram>
</mxfile>
